# Blender v2.78 (sub 0) OBJ File: 'block-a-03.blend'
# www.blender.org
mtllib block.mtl
g Bottom.008
v -0.280000 -0.280000 -0.400000
v -0.280000 -0.400000 -0.280000
v -0.400000 -0.280000 -0.280000
vn -0.5773 -0.5774 -0.5774
usemtl Material
s off
f 1//1 2//1 3//1
g Bottom.007
v 0.400000 -0.280000 -0.280000
v 0.280000 -0.400000 -0.280000
v 0.280000 -0.280000 -0.400000
vn 0.5773 -0.5774 -0.5774
usemtl Material
s off
f 4//2 5//2 6//2
g Bottom.006
v 0.400000 -0.280000 0.280000
v 0.280000 -0.280000 0.400000
v 0.280000 -0.400000 0.280000
vn 0.5774 -0.5774 0.5773
usemtl Material
s off
f 7//3 8//3 9//3
g Bottom.005
v -0.280000 -0.280000 0.400000
v -0.400000 -0.280000 0.280000
v -0.280000 -0.400000 0.280000
vn -0.5774 -0.5774 0.5774
usemtl Material
s off
f 10//4 11//4 12//4
g EBCorner
v -0.400000 -0.280000 0.280000
v -0.280000 -0.400000 0.280000
v -0.280000 -0.400000 -0.280000
v -0.400000 -0.280000 -0.280000
vn -0.7071 -0.7071 -0.0000
usemtl Material
s off
f 13//5 16//5 15//5 14//5
g WBCorner
v 0.400000 -0.280000 -0.280000
v 0.280000 -0.400000 -0.280000
v 0.400000 -0.280000 0.280000
v 0.280000 -0.400000 0.280000
vn 0.7071 -0.7071 0.0000
usemtl Material
s off
f 17//6 19//6 20//6 18//6
g SBCorner
v 0.280000 -0.400000 -0.280000
v 0.280000 -0.280000 -0.400000
v -0.280000 -0.280000 -0.400000
v -0.280000 -0.400000 -0.280000
vn 0.0000 -0.7071 -0.7071
usemtl Material
s off
f 21//7 24//7 23//7 22//7
g NBCorner
v 0.280000 -0.280000 0.400000
v 0.280000 -0.400000 0.280000
v -0.280000 -0.280000 0.400000
v -0.280000 -0.400000 0.280000
vn -0.0000 -0.7071 0.7071
usemtl Material
s off
f 25//8 27//8 28//8 26//8
g Top.008
v -0.400000 0.280000 -0.280000
v -0.280000 0.400000 -0.280000
v -0.280000 0.280000 -0.400000
vn -0.5774 0.5774 -0.5774
usemtl Material
s off
f 29//9 30//9 31//9
g Top.007
v 0.280000 0.280000 -0.400000
v 0.280000 0.400000 -0.280000
v 0.400000 0.280000 -0.280000
vn 0.5774 0.5774 -0.5773
usemtl Material
s off
f 32//10 33//10 34//10
g Top.006
v 0.280000 0.280000 0.400000
v 0.400000 0.280000 0.280000
v 0.280000 0.400000 0.280000
vn 0.5774 0.5773 0.5774
usemtl Material
s off
f 35//11 36//11 37//11
g Top.005
v -0.400000 0.280000 0.280000
v -0.280000 0.280000 0.400000
v -0.280000 0.400000 0.280000
vn -0.5774 0.5774 0.5774
usemtl Material
s off
f 38//12 39//12 40//12
g WTCorner
v 0.280000 0.400000 -0.280000
v 0.400000 0.280000 -0.280000
v 0.400000 0.280000 0.280000
v 0.280000 0.400000 0.280000
vn 0.7071 0.7071 0.0000
usemtl Material
s off
f 41//13 44//13 43//13 42//13
g ETCorner
v -0.400000 0.280000 0.280000
v -0.280000 0.400000 0.280000
v -0.400000 0.280000 -0.280000
v -0.280000 0.400000 -0.280000
vn -0.7071 0.7071 -0.0000
usemtl Material
s off
f 46//14 48//14 47//14 45//14
g STCorner
v 0.280000 0.280000 -0.400000
v 0.280000 0.400000 -0.280000
v -0.280000 0.400000 -0.280000
v -0.280000 0.280000 -0.400000
vn 0.0000 0.7071 -0.7071
usemtl Material
s off
f 49//15 52//15 51//15 50//15
g NTCorner
v 0.280000 0.280000 0.400000
v 0.280000 0.400000 0.280000
v -0.280000 0.280000 0.400000
v -0.280000 0.400000 0.280000
vn -0.0000 0.7071 0.7071
usemtl Material
s off
f 54//16 56//16 55//16 53//16
g NTJoin
v -0.280000 0.400000 0.280000
v 0.280000 0.400000 0.280000
v -0.280000 0.560000 0.440000
v 0.280000 0.560000 0.440000
vn -0.0000 0.7071 -0.7071
usemtl Material
s off
f 60//17 58//17 57//17 59//17
g NBJoin
v -0.280000 -0.400000 0.280000
v 0.280000 -0.400000 0.280000
v 0.280000 -0.560000 0.440000
v -0.280000 -0.560000 0.440000
vn 0.0000 -0.7071 -0.7071
usemtl Material
s off
f 63//18 64//18 61//18 62//18
g SBJoin
v -0.280000 -0.400000 -0.280000
v 0.280000 -0.400000 -0.280000
v 0.280000 -0.560000 -0.440000
v -0.280000 -0.560000 -0.440000
vn -0.0000 -0.7071 0.7071
usemtl Material
s off
f 67//19 66//19 65//19 68//19
g STJoin
v -0.280000 0.400000 -0.280000
v 0.280000 0.400000 -0.280000
v -0.280000 0.560000 -0.440000
v 0.280000 0.560000 -0.440000
vn -0.0000 0.7071 0.7071
usemtl Material
s off
f 72//20 71//20 69//20 70//20
g WBWall
v 0.280000 -0.400000 -0.280000
v 0.280000 -0.400000 0.280000
v 0.500000 -0.400000 0.280000
v 0.500000 -0.400000 -0.280000
vn 0.0000 -1.0000 -0.0000
usemtl Material
s off
f 75//21 74//21 73//21 76//21
g EBWall
v -0.280000 -0.400000 -0.280000
v -0.280000 -0.400000 0.280000
v -0.500000 -0.400000 0.280000
v -0.500000 -0.400000 -0.280000
vn 0.0000 -1.0000 0.0000
usemtl Material
s off
f 78//22 79//22 80//22 77//22
g ETWall
v -0.280000 0.400000 -0.280000
v -0.280000 0.400000 0.280000
v -0.500000 0.400000 -0.280000
v -0.500000 0.400000 0.280000
vn -0.0000 1.0000 0.0000
usemtl Material
s off
f 81//23 83//23 84//23 82//23
g WTWall
v 0.280000 0.400000 -0.280000
v 0.280000 0.400000 0.280000
v 0.500000 0.400000 -0.280000
v 0.500000 0.400000 0.280000
vn -0.0000 1.0000 0.0000
usemtl Material
s off
f 87//24 85//24 86//24 88//24
g NTWall
v -0.280000 0.400000 0.280000
v 0.280000 0.400000 0.280000
v -0.280000 0.400000 0.500000
v 0.280000 0.400000 0.500000
vn -0.0000 1.0000 0.0000
usemtl Material
s off
f 89//25 91//25 92//25 90//25
g STWall
v -0.280000 0.400000 -0.280000
v 0.280000 0.400000 -0.280000
v -0.280000 0.400000 -0.500000
v 0.280000 0.400000 -0.500000
vn -0.0000 1.0000 0.0000
usemtl Material
s off
f 95//26 93//26 94//26 96//26
g SBWall
v -0.280000 -0.400000 -0.280000
v 0.280000 -0.400000 -0.280000
v 0.280000 -0.400000 -0.500000
v -0.280000 -0.400000 -0.500000
vn 0.0000 -1.0000 -0.0000
usemtl Material
s off
f 97//27 100//27 99//27 98//27
g NBWall
v -0.280000 -0.400000 0.280000
v 0.280000 -0.400000 0.280000
v 0.280000 -0.400000 0.500000
v -0.280000 -0.400000 0.500000
vn 0.0000 -1.0000 -0.0000
usemtl Material
s off
f 104//28 101//28 102//28 103//28
g TWJoin
v 0.400000 0.280000 -0.280000
v 0.400000 0.280000 0.280000
v 0.560000 0.440000 0.280000
v 0.560000 0.440000 -0.280000
vn 0.7071 -0.7071 -0.0000
usemtl Material
s off
f 107//29 106//29 105//29 108//29
g ETJoin
v -0.280000 0.400000 -0.280000
v -0.280000 0.400000 0.280000
v -0.440000 0.560000 0.280000
v -0.440000 0.560000 -0.280000
vn 0.7071 0.7071 0.0000
usemtl Material
s off
f 110//30 109//30 112//30 111//30
g EBJoin
v -0.280000 -0.400000 -0.280000
v -0.280000 -0.400000 0.280000
v -0.440000 -0.560000 0.280000
v -0.440000 -0.560000 -0.280000
vn 0.7071 -0.7071 0.0000
usemtl Material
s off
f 114//31 115//31 116//31 113//31
g WBJoin
v 0.280000 -0.400000 -0.280000
v 0.280000 -0.400000 0.280000
v 0.440000 -0.560000 -0.280000
v 0.440000 -0.560000 0.280000
vn -0.7071 -0.7071 -0.0000
usemtl Material
s off
f 118//32 117//32 119//32 120//32
g WTJoin
v 0.280000 0.400000 -0.280000
v 0.280000 0.400000 0.280000
v 0.440000 0.560000 -0.280000
v 0.440000 0.560000 0.280000
vn -0.7071 0.7071 0.0000
usemtl Material
s off
f 123//33 121//33 122//33 124//33
g TSJoin
v -0.280000 0.280000 -0.400000
v 0.280000 0.280000 -0.400000
v 0.280000 0.440000 -0.560000
v -0.280000 0.440000 -0.560000
vn 0.0000 -0.7071 -0.7071
usemtl Material
s off
f 126//34 125//34 128//34 127//34
g TNJoin
v -0.280000 0.280000 0.400000
v 0.280000 0.280000 0.400000
v 0.280000 0.440000 0.560000
v -0.280000 0.440000 0.560000
vn 0.0000 -0.7071 0.7071
usemtl Material
s off
f 130//35 131//35 132//35 129//35
g BNJoin
v -0.280000 -0.280000 0.400000
v 0.280000 -0.280000 0.400000
v -0.280000 -0.440000 0.560000
v 0.280000 -0.440000 0.560000
vn -0.0000 0.7071 0.7071
usemtl Material
s off
f 134//36 133//36 135//36 136//36
g BSJoin
v -0.280000 -0.280000 -0.400000
v 0.280000 -0.280000 -0.400000
v -0.280000 -0.440000 -0.560000
v 0.280000 -0.440000 -0.560000
vn 0.0000 0.7071 -0.7071
usemtl Material
s off
f 139//37 137//37 138//37 140//37
g BEJoin
v -0.400000 -0.280000 -0.280000
v -0.400000 -0.280000 0.280000
v -0.560000 -0.440000 -0.280000
v -0.560000 -0.440000 0.280000
vn -0.7071 0.7071 -0.0000
usemtl Material
s off
f 144//38 142//38 141//38 143//38
g BWJoin
v 0.400000 -0.280000 -0.280000
v 0.400000 -0.280000 0.280000
v 0.560000 -0.440000 0.280000
v 0.560000 -0.440000 -0.280000
vn 0.7071 0.7071 0.0000
usemtl Material
s off
f 147//39 148//39 145//39 146//39
g TEJoin
v -0.400000 0.280000 -0.280000
v -0.400000 0.280000 0.280000
v -0.560000 0.440000 -0.280000
v -0.560000 0.440000 0.280000
vn -0.7071 -0.7071 -0.0000
usemtl Material
s off
f 152//40 151//40 149//40 150//40
g BEWall
v -0.400000 -0.280000 -0.280000
v -0.400000 -0.280000 0.280000
v -0.400000 -0.500000 -0.280000
v -0.400000 -0.500000 0.280000
vn -1.0000 -0.0000 -0.0000
usemtl Material
s off
f 153//41 155//41 156//41 154//41
g TEWall
v -0.400000 0.280000 -0.280000
v -0.400000 0.280000 0.280000
v -0.400000 0.500000 -0.280000
v -0.400000 0.500000 0.280000
vn -1.0000 -0.0000 -0.0000
usemtl Material
s off
f 159//42 157//42 158//42 160//42
g TWWall
v 0.400000 0.280000 -0.280000
v 0.400000 0.280000 0.280000
v 0.400000 0.500000 0.280000
v 0.400000 0.500000 -0.280000
vn 1.0000 0.0000 0.0000
usemtl Material
s off
f 161//43 164//43 163//43 162//43
g BWWall
v 0.400000 -0.280000 -0.280000
v 0.400000 -0.280000 0.280000
v 0.400000 -0.500000 0.280000
v 0.400000 -0.500000 -0.280000
vn 1.0000 0.0000 0.0000
usemtl Material
s off
f 168//44 165//44 166//44 167//44
g BNWall
v -0.280000 -0.280000 0.400000
v 0.280000 -0.280000 0.400000
v 0.280000 -0.500000 0.400000
v -0.280000 -0.500000 0.400000
vn -0.0000 -0.0000 1.0000
usemtl Material
s off
f 171//45 170//45 169//45 172//45
g TNWall
v -0.280000 0.280000 0.400000
v 0.280000 0.280000 0.400000
v 0.280000 0.500000 0.400000
v -0.280000 0.500000 0.400000
vn 0.0000 -0.0000 1.0000
usemtl Material
s off
f 174//46 175//46 176//46 173//46
g TSWall
v -0.280000 0.280000 -0.400000
v 0.280000 0.280000 -0.400000
v -0.280000 0.500000 -0.400000
v 0.280000 0.500000 -0.400000
vn 0.0000 0.0000 -1.0000
usemtl Material
s off
f 177//47 179//47 180//47 178//47
g BSWall
v -0.280000 -0.280000 -0.400000
v 0.280000 -0.280000 -0.400000
v -0.280000 -0.500000 -0.400000
v 0.280000 -0.500000 -0.400000
vn 0.0000 0.0000 -1.0000
usemtl Material
s off
f 183//48 181//48 182//48 184//48
g WLJoin
v 0.280000 -0.280000 -0.400000
v 0.280000 0.280000 -0.400000
v 0.440000 -0.280000 -0.560000
v 0.440000 0.280000 -0.560000
vn -0.7071 0.0000 -0.7071
usemtl Material
s off
f 187//49 185//49 186//49 188//49
g WRJoin
v 0.280000 -0.280000 0.400000
v 0.280000 0.280000 0.400000
v 0.440000 -0.280000 0.560000
v 0.440000 0.280000 0.560000
vn -0.7071 -0.0000 0.7071
usemtl Material
s off
f 190//50 189//50 191//50 192//50
g SLJoin
v -0.400000 -0.280000 -0.280000
v -0.400000 0.280000 -0.280000
v -0.560000 -0.280000 -0.440000
v -0.560000 0.280000 -0.440000
vn -0.7071 -0.0000 0.7071
usemtl Material
s off
f 196//51 195//51 193//51 194//51
g SRJoin
v 0.400000 -0.280000 -0.280000
v 0.400000 0.280000 -0.280000
v 0.560000 0.280000 -0.440000
v 0.560000 -0.280000 -0.440000
vn 0.7071 -0.0000 0.7071
usemtl Material
s off
f 199//52 198//52 197//52 200//52
g ELJoin
v -0.280000 -0.280000 0.400000
v -0.280000 0.280000 0.400000
v -0.440000 0.280000 0.560000
v -0.440000 -0.280000 0.560000
vn 0.7071 0.0000 0.7071
usemtl Material
s off
f 202//53 203//53 204//53 201//53
g ERJoin
v -0.280000 -0.280000 -0.400000
v -0.280000 0.280000 -0.400000
v -0.440000 0.280000 -0.560000
v -0.440000 -0.280000 -0.560000
vn 0.7071 0.0000 -0.7071
usemtl Material
s off
f 206//54 205//54 208//54 207//54
g NLJoin
v 0.400000 -0.280000 0.280000
v 0.400000 0.280000 0.280000
v 0.560000 0.280000 0.440000
v 0.560000 -0.280000 0.440000
vn 0.7071 0.0000 -0.7071
usemtl Material
s off
f 211//55 212//55 209//55 210//55
g NRJoin
v -0.400000 -0.280000 0.280000
v -0.400000 0.280000 0.280000
v -0.560000 -0.280000 0.440000
v -0.560000 0.280000 0.440000
vn -0.7071 -0.0000 -0.7071
usemtl Material
s off
f 216//56 214//56 213//56 215//56
g NLWall
v 0.400000 -0.280000 0.280000
v 0.400000 0.280000 0.280000
v 0.400000 0.280000 0.500000
v 0.400000 -0.280000 0.500000
vn 1.0000 0.0000 -0.0000
usemtl Material
s off
f 220//57 217//57 218//57 219//57
g SRWall
v 0.400000 -0.280000 -0.280000
v 0.400000 0.280000 -0.280000
v 0.400000 0.280000 -0.500000
v 0.400000 -0.280000 -0.500000
vn 1.0000 0.0000 -0.0000
usemtl Material
s off
f 221//58 224//58 223//58 222//58
g WLWall
v 0.280000 -0.280000 -0.400000
v 0.280000 0.280000 -0.400000
v 0.500000 -0.280000 -0.400000
v 0.500000 0.280000 -0.400000
vn -0.0000 0.0000 -1.0000
usemtl Material
s off
f 227//59 225//59 226//59 228//59
g ERWall
v -0.280000 -0.280000 -0.400000
v -0.280000 0.280000 -0.400000
v -0.500000 -0.280000 -0.400000
v -0.500000 0.280000 -0.400000
vn -0.0000 0.0000 -1.0000
usemtl Material
s off
f 229//60 231//60 232//60 230//60
g SLWall
v -0.400000 -0.280000 -0.280000
v -0.400000 0.280000 -0.280000
v -0.400000 -0.280000 -0.500000
v -0.400000 0.280000 -0.500000
vn -1.0000 -0.0000 0.0000
usemtl Material
s off
f 235//61 233//61 234//61 236//61
g NRWall
v -0.400000 -0.280000 0.280000
v -0.400000 0.280000 0.280000
v -0.400000 -0.280000 0.500000
v -0.400000 0.280000 0.500000
vn -1.0000 -0.0000 0.0000
usemtl Material
s off
f 237//62 239//62 240//62 238//62
g ELWall
v -0.280000 -0.280000 0.400000
v -0.280000 0.280000 0.400000
v -0.500000 0.280000 0.400000
v -0.500000 -0.280000 0.400000
vn 0.0000 0.0000 1.0000
usemtl Material
s off
f 242//63 243//63 244//63 241//63
g WRWall
v 0.280000 -0.280000 0.400000
v 0.280000 0.280000 0.400000
v 0.500000 0.280000 0.400000
v 0.500000 -0.280000 0.400000
vn 0.0000 -0.0000 1.0000
usemtl Material
s off
f 247//64 246//64 245//64 248//64
g SWWall
v 0.400000 -0.280000 -0.280000
v 0.280000 -0.280000 -0.400000
v 0.280000 0.280000 -0.400000
v 0.400000 0.280000 -0.280000
vn 0.7071 -0.0000 -0.7071
usemtl Material
s off
f 250//65 251//65 252//65 249//65
g NWWall
v 0.400000 -0.280000 0.280000
v 0.280000 -0.280000 0.400000
v 0.280000 0.280000 0.400000
v 0.400000 0.280000 0.280000
vn 0.7071 0.0000 0.7071
usemtl Material
s off
f 253//66 256//66 255//66 254//66
g SEWall
v -0.280000 -0.280000 -0.400000
v -0.400000 -0.280000 -0.280000
v -0.400000 0.280000 -0.280000
v -0.280000 0.280000 -0.400000
vn -0.7071 0.0000 -0.7071
usemtl Material
s off
f 258//67 259//67 260//67 257//67
g NEWall
v -0.280000 -0.280000 0.400000
v -0.400000 -0.280000 0.280000
v -0.400000 0.280000 0.280000
v -0.280000 0.280000 0.400000
vn -0.7071 0.0000 0.7071
usemtl Material
s off
f 261//68 264//68 263//68 262//68
g EastWall
v -0.400000 -0.280000 0.280000
v -0.400000 -0.280000 -0.280000
v -0.400000 0.280000 0.280000
v -0.400000 0.280000 -0.280000
vn -1.0000 -0.0000 -0.0000
usemtl Material
s off
f 265//69 267//69 268//69 266//69
g NorthWall
v 0.280000 -0.280000 0.400000
v -0.280000 -0.280000 0.400000
v 0.280000 0.280000 0.400000
v -0.280000 0.280000 0.400000
vn -0.0000 -0.0000 1.0000
usemtl Material
s off
f 269//70 271//70 272//70 270//70
g WestWall
v 0.400000 -0.280000 -0.280000
v 0.400000 -0.280000 0.280000
v 0.400000 0.280000 -0.280000
v 0.400000 0.280000 0.280000
vn 1.0000 0.0000 0.0000
usemtl Material
s off
f 273//71 275//71 276//71 274//71
g SouthWall
v 0.280000 -0.280000 -0.400000
v -0.280000 -0.280000 -0.400000
v 0.280000 0.280000 -0.400000
v -0.280000 0.280000 -0.400000
vn 0.0000 0.0000 -1.0000
usemtl Material
s off
f 279//72 277//72 278//72 280//72
g Bottom
v 0.280000 -0.400000 -0.280000
v 0.280000 -0.400000 0.280000
v -0.280000 -0.400000 0.280000
v -0.280000 -0.400000 -0.280000
vn 0.0000 -1.0000 -0.0000
usemtl Material
s off
f 281//73 282//73 283//73 284//73
g Top
v 0.280000 0.400000 -0.280000
v 0.280000 0.400000 0.280000
v -0.280000 0.400000 0.280000
v -0.280000 0.400000 -0.280000
vn 0.0000 1.0000 0.0000
usemtl Material
s off
f 285//74 288//74 287//74 286//74
